<?xml version="1.0" encoding="UTF-8"?>
<svg height="75" width="75"    version="1.1" xmlns="http://www.w3.org/2000/svg" xmlns:xlink="http://www.w3.org/1999/xlink"
  >
    <defs id="SvgjsDefs1174"></defs>
    <g id="SvgjsG1175" featurekey="5TMTKC-0"
        transform="matrix(0.7889828046971873,0,0,0.7889828046971873,-8.714850117679898,-13.714497876466236)"
        fill="#6A9758" stroke="#6A9758" >
        <title xmlns="http://www.w3.org/2000/svg">05_collections</title>
        <path xmlns="http://www.w3.org/2000/svg"
            d="M85.82,74.51l-0.2.17C79,80.49,71.17,83,64.12,81.62c-6.36-1.26-10.91-5.46-15.3-9.52-4.76-4.4-9.25-8.55-15.87-9.26S19.1,65.18,13.39,71.29c2.22,3.09,12.78,15.79,30,5.3a1,1,0,0,1,1,1.71c-5.18,3.15-9.84,4.34-13.91,4.34-12.25,0-19.19-10.76-19.28-10.91a1,1,0,0,1,.1-1.2c6.23-7,14.17-10.51,21.79-9.69,7.28,0.78,12.23,5.36,17,9.78,4.38,4,8.52,7.88,14.33,9,6.44,1.28,13.65-1.08,19.78-6.48l0.24-.2a26.68,26.68,0,0,0,2.23-2c-3-7.08-11.17-8.72-12.8-9a36.92,36.92,0,0,1-9.55,4.13,1,1,0,0,1-.27,0,1,1,0,0,1-.27-2c10.19-2.9,16.5-8.43,18.78-16.42a24.11,24.11,0,0,0,.53-10.5c-13.83-1.42-19.66,6.85-20.52,8.2-0.77,5.4-3.22,10.78-7.32,16.08a1,1,0,0,1-1.58-1.22C57.67,55.26,60,50.14,60.69,45h0a24.07,24.07,0,0,0,0-6.45c-1.32-10-8.65-17-10.86-18.91C38.27,30.34,40.34,41.9,42.79,48.1a38.83,38.83,0,0,1,2.4,4.71,1,1,0,0,1-1.74,1,26.32,26.32,0,0,1-2.25-4.45c-3.6-6.1-8.47-9.9-14.52-11.31a22.17,22.17,0,0,0-9.43-.13c-2.89,8.75,3.16,16.64,3.22,16.72a1,1,0,0,1-1.58,1.23c-0.29-.37-7-9.14-3.35-19.15a1,1,0,0,1,.66-0.61,23.88,23.88,0,0,1,23.28,7.5c-1.38-7.14-.54-17,9.67-26a1,1,0,0,1,1.27,0C50.87,17.88,61,25.73,62.7,38.31A26.1,26.1,0,0,1,62.92,42c3.07-3.23,9.68-8,21.21-6.59a1,1,0,0,1,.84.74c0,0.18,3.59,14.77-8.74,24.3,3.52,0.9,10,3.45,12.58,10.28C89.13,71.52,88.62,72.16,85.82,74.51Z">
        </path>
    </g>
</svg>
